<?xml version="1.0"?>
<svg width="20480" height="7190" xmlns="http://www.w3.org/2000/svg" xmlns:svg="http://www.w3.org/2000/svg" class="img-fluid" transform="matrix(1, 0, 0, 1, -28.4665, 85.6162)">
 <g class="layer">
  <title>Layer 1</title>
  <g fill="rgb(64,123,167)" id="l7DExDROBuN824EuutaThGF" transform="none">
   <g id="svg_1" transform="none">
    <path d="m0,3595l0,-3595l10240,0l10240,0l0,3595l0,3595l-10240,0l-10240,0l0,-3595z" id="pvBBu8fhi"/>
   </g>
  </g>
  <g fill="rgb(91,163,213)" id="lsbe49ftJztxcxCZiNNhu0" transform="none">
   <g id="svg_2" transform="none">
    <path d="m564,7175c25,-19 31,-19 46,0c11,13 7,15 -26,15c-36,-1 -38,-2 -20,-15z" id="ph1ATKZdJ"/>
    <path d="m10175,6171c-148,-48 -850,-286 -1405,-477c-212,-73 -298,-98 -335,-98c-45,0 -75,14 -290,127c-537,283 -700,320 -1143,261c-159,-21 -284,-56 -452,-125c-409,-170 -708,-382 -970,-688c-136,-159 -267,-332 -332,-438c-28,-46 -54,-82 -58,-81c-5,2 -65,55 -135,118c-163,147 -231,201 -390,309c-357,243 -743,421 -1140,526c-249,66 -928,215 -979,215c-37,0 -11,-29 48,-54c35,-15 72,-36 82,-47c15,-16 8,-15 -47,7c-106,44 -344,122 -499,164c-482,132 -1160,217 -1942,246l-188,7l0,-3072l0,-3071l10240,0l10240,0l0,3066l0,3066l-517,-5c-1202,-12 -1866,-85 -3163,-348c-449,-91 -704,-151 -1080,-254c-309,-85 -476,-125 -519,-125c-24,0 -148,37 -318,96c-538,186 -1085,353 -1712,525c-200,54 -387,102 -416,105c-68,8 -107,-4 -412,-125c-380,-151 -589,-231 -603,-231c-13,0 -675,215 -1125,365c-121,41 -236,76 -255,79c-25,4 -77,-8 -185,-43zm-5995,-1337c0,-3 -13,4 -30,16c-16,12 -30,24 -30,26c0,3 14,-4 30,-16c17,-12 30,-24 30,-26zm91,-60c9,-11 2,-9 -18,6c-18,13 -33,25 -33,27c0,8 38,-17 51,-33zm179,-124c19,-15 91,-69 160,-120c69,-52 170,-128 225,-170c174,-131 332,-240 567,-387c46,-29 78,-53 72,-53c-16,0 -402,253 -528,345c-111,82 -556,416 -602,453c-36,29 58,-32 106,-68zm1225,-566c-71,-69 -139,-130 -150,-135c-11,-6 -4,5 17,25c20,19 34,37 30,40c-3,3 1,6 9,6c8,0 59,43 114,95c55,52 102,94 105,94c3,0 -53,-56 -125,-125z" id="p6buYT86d"/>
   </g>
  </g>
  <g fill="rgb(249,192,30)" id="l6R1AhTHBBPbvFjuHqv2EqQ" transform="none">
   <g id="svg_3" transform="none">
    <path d="m10285,6203c-43,-11 -840,-280 -1505,-509c-214,-73 -304,-100 -360,-105c-117,-11 -480,-122 -725,-222c-351,-142 -917,-411 -1022,-485c-15,-11 -89,-59 -163,-107c-275,-178 -467,-332 -720,-580c-258,-253 -297,-284 -336,-266c-66,30 -514,338 -709,487c-439,336 -728,534 -1055,724c-107,62 -204,118 -215,124c-11,6 -45,29 -75,52c-133,98 -405,245 -655,354c-638,278 -1437,422 -2527,456l-218,7l0,-3067l0,-3066l10240,0l10240,0l0,3060l0,3060l-97,1c-919,7 -1713,-35 -2308,-122c-826,-120 -1665,-290 -2355,-477c-162,-44 -347,-92 -411,-107l-116,-27l-179,60c-98,33 -267,90 -374,127c-440,150 -1159,362 -1775,525c-160,42 -162,41 -445,-72c-337,-135 -662,-258 -682,-258c-20,0 -625,195 -1104,356c-239,80 -290,91 -349,77z" id="pRtHWZLnh"/>
   </g>
  </g>
  <g fill="rgb(142,204,246)" id="l2ARwxqOLWBu6tB3z99lpAH">
   <g id="svg_4" transform="none">
    <path d="m10285,6203c-43,-11 -840,-280 -1505,-509c-214,-73 -304,-100 -360,-105c-134,-13 -765,-213 -723,-230c9,-4 76,-148 189,-406c80,-182 140,-371 170,-538c41,-220 56,-620 34,-846c-43,-425 -182,-807 -461,-1259c-100,-162 -248,-329 -409,-459c-82,-67 -351,-251 -365,-251c-3,0 -22,-11 -43,-24c-146,-92 -427,-216 -607,-267c-291,-83 -469,-112 -755,-123c-537,-19 -1117,180 -1560,538c-115,92 -338,321 -405,416c-146,205 -286,453 -355,630c-18,47 -36,94 -41,105c-58,146 -118,434 -139,665c-22,255 -9,446 56,768c52,257 109,423 234,672c115,230 150,287 182,299c18,7 15,11 -28,42c-139,99 -408,244 -649,349c-638,278 -1437,422 -2527,456l-218,7l0,-3067l0,-3066l10240,0l10240,0l0,3060l0,3060l-97,1c-919,7 -1713,-35 -2308,-122c-826,-120 -1665,-290 -2355,-477c-162,-44 -347,-92 -411,-107l-116,-27l-179,60c-98,33 -267,90 -374,127c-440,150 -1159,362 -1775,525c-160,42 -162,41 -445,-72c-337,-135 -662,-258 -682,-258c-20,0 -625,195 -1104,356c-239,80 -290,91 -349,77z" id="pGwJJd0uS"/>
   </g>
  </g>
  <g fill="rgb(222,241,249)" id="l7AKft7QzzOpUE76ydhiISR" transform="matrix(1 0 0 1 0 0)">
   <g id="svg_5">
    <path d="m11910,2400c0,-30 27,-38 151,-45c169,-9 175,-10 190,-47c37,-90 178,-264 255,-314c20,-14 61,-17 139,-11c30,2 30,1 36,-58c14,-148 135,-280 324,-356c71,-28 87,-31 189,-30c70,0 131,6 166,16c122,34 115,36 140,-41c71,-217 233,-362 475,-425c73,-19 116,-23 225,-23c157,0 241,19 376,86c165,81 257,182 370,403c75,146 132,231 196,291c61,59 327,263 367,282l33,17l107,-112c88,-93 112,-113 144,-118c40,-8 136,1 175,16c34,13 40,5 62,-84c60,-240 238,-392 486,-413c280,-25 647,182 781,441c49,94 74,169 103,302c19,88 19,99 6,109c-30,22 -16,31 52,33c119,3 285,21 310,34c30,15 29,30 -2,38c-43,12 -1223,20 -3553,24c-2283,5 -2303,5 -2303,-15z" id="phWYo8wXZ"/>
   </g>
  </g>
 </g>
</svg>