<?xml version="1.0"?>
<svg width="600" height="600" xmlns="http://www.w3.org/2000/svg" xmlns:svg="http://www.w3.org/2000/svg">
 <!-- Yellow Background -->
 <!-- Multiple Blue Wavy Path -->
 <!-- Calculator Outline -->
 <!-- Screen -->
 <!-- Buttons -->
 <g class="layer">
  <title>Layer 1</title>
  <g id="svg_2">
   <rect fill="#efb810" height="602.18" id="svg_1" transform="matrix(1 0 0 1 0 0)" width="598.88" x="0.01" y="0.99"/>
   <g fill="rgb(171,255,255)" id="lWTUcmX5VcqYCQX6bpHfev" transform="matrix(4.56199 -2.91585 3.33853 3.98478 597.359 -916.681)">
    <g id="svg_15">
     <path d="m-261.15,195.45c-6.46,-0.68 -10.54,-1.67 -18.32,-4.42c-13.99,-5 -24.84,-11.22 -32.72,-18.77l-1.34,-1.28l0,-49.13l0,-49.15l115.86,0l115.86,0l0,34.12l0,34.12l-1.9,0.97c-5.01,2.55 -8.95,3.19 -17.97,2.9c-7.39,-0.25 -13.02,-0.21 -14.97,0.08c-9.51,1.48 -15.5,6.26 -26.64,21.34c-0.93,1.23 -2,2.68 -2.39,3.19c-0.39,0.51 -1.08,1.44 -1.55,2.06c-10.73,14.53 -18.2,19.57 -27.38,18.54c-5.65,-0.64 -10.21,-2.9 -20.42,-10.11c-2.27,-1.61 -4.99,-3.48 -6.06,-4.16c-6.94,-4.42 -13.26,-6.54 -17.83,-5.95c-5.19,0.7 -9.06,3.44 -13.71,9.71c-1.64,2.2 -3.86,5.06 -4.8,6.17c-4.46,5.27 -9.37,8.21 -15.65,9.34c-1.64,0.31 -6.64,0.54 -8.06,0.39l-0.01,0.04z" fill="#5a9dcd" id="pq85LziCk"/>
    </g>
   </g>
   <g id="svg_16" transform="matrix(1 0 0 1 0 0)">
    <g id="svg_17">
     <rect fill="#2c2c2c" height="352" id="svg_3" rx="20" ry="20" width="239.04" x="186.68" y="123.87"/>
     <rect fill="#1a1a1a" height="100.58" id="svg_4" rx="10" ry="10" width="179.28" x="216.56" y="154.03"/>
     <rect fill="white" height="80.46" id="svg_5" rx="5" ry="5" width="159.35" x="226.51" y="164.1"/>
     <circle cx="256.4" cy="294.83" fill="#b0b0b0" id="svg_6" r="22.17"/>
     <circle cx="306.21" cy="294.83" fill="#b0b0b0" id="svg_7" r="22.17"/>
     <circle cx="356.02" cy="294.83" fill="#b0b0b0" id="svg_8" r="22.17"/>
     <circle cx="256.4" cy="355.18" fill="#b0b0b0" id="svg_9" r="22.17"/>
     <circle cx="306.21" cy="355.18" fill="#b0b0b0" id="svg_10" r="22.17"/>
     <circle cx="356.02" cy="355.18" fill="#b0b0b0" id="svg_11" r="22.17"/>
     <circle cx="256.4" cy="415.52" fill="#b0b0b0" id="svg_12" r="22.17"/>
     <circle cx="306.21" cy="415.52" fill="#b0b0b0" id="svg_13" r="22.17"/>
     <circle cx="356.02" cy="415.52" fill="#b0b0b0" id="svg_14" r="22.17"/>
    </g>
   </g>
  </g>
 </g>
</svg>